Coordinates
version=1
nRows=11
nColumns=36
inDegrees=yes

Units are S.I. units (second, meters, Newtons, ...)
If the header above contains a line with 'inDegrees', this indicates whether rotational values are in degrees (yes) or radians (no).

endheader
time	pelvis_tilt	pelvis_list	pelvis_rotation	pelvis_tx	pelvis_ty	pelvis_tz	hip_flexion_r	hip_adduction_r	hip_rotation_r	knee_angle_r	knee_angle_r_beta	ankle_angle_r	subtalar_angle_r	mtp_angle_r	hip_flexion_l	hip_adduction_l	hip_rotation_l	knee_angle_l	knee_angle_l_beta	ankle_angle_l	subtalar_angle_l	mtp_angle_l	lumbar_extension	lumbar_bending	lumbar_rotation	arm_flex_r	arm_add_r	arm_rot_r	elbow_flex_r	pro_sup_r	arm_flex_l	arm_add_l	arm_rot_l	elbow_flex_l	pro_sup_l
      1.35000000	    -16.94092109	     -0.32514436	     -3.04582234	     -0.53278255	      1.15006056	     -0.59568225	     33.52987596	     -4.46206132	     -9.40941460	     15.67828229	      0.27363765	    -21.51699166	     -0.70801935	     -6.68914315	     34.40455172	     -7.89877588	     -3.58142120	     15.35148742	      0.26793400	    -30.19911166	     -5.08598729	     -6.68914315	    -14.63299404	      1.59393135	     -0.92051128	    -16.43239278	    -12.68233656	     -0.94089782	     28.34522656	    110.27785800	    -20.97034717	     -9.98132479	    -10.18155283	     29.40042051	    111.23481678
      1.36000000	    -17.31542048	     -0.28165364	     -3.04011251	     -0.52390808	      1.13220956	     -0.59653991	     34.80670862	     -4.81080135	    -11.12131517	     14.06602156	      0.24549839	    -22.29950545	      1.18599848	     -6.75355370	     35.70075405	     -8.23071946	     -4.54220652	     14.08529646	      0.24583480	    -30.86748450	     -4.38430961	     -6.75355370	    -15.35841959	      1.59280608	     -0.30385444	    -19.11738067	    -12.08758277	     -1.48094756	     27.24335187	    108.94384815	    -21.94429043	     -9.53753830	     -8.75205422	     27.08127697	    109.36015302
      1.37000000	    -17.68418192	     -0.30704486	     -3.07973243	     -0.51507359	      1.11327748	     -0.59733660	     36.13125388	     -4.97731607	    -12.45282751	     12.73758805	      0.22231285	    -24.03538876	      1.90110303	     -6.74708037	     37.05818318	     -8.62012629	     -5.38606001	     13.15483570	      0.22959520	    -31.91386413	     -4.48245232	     -6.74708037	    -15.98549829	      1.60119369	      0.00696426	    -21.48062097	    -11.68480885	     -1.75404171	     25.87762712	    109.31293868	    -23.52347775	     -8.85497447	     -8.73533513	     25.85484937	    109.79601953
      1.38000000	    -18.05077244	     -0.43363828	     -3.09725959	     -0.50629932	      1.09322177	     -0.59823055	     37.50716858	     -5.02966670	    -13.44394523	     11.85750426	      0.20695249	    -25.48578921	      2.05687396	     -6.83576090	     38.55184878	     -9.03850331	     -5.88359453	     12.74640122	      0.22246667	    -32.88010903	     -5.35150417	     -6.83576090	    -16.57712297	      1.89330794	      0.90333004	    -24.53113037	    -10.53265181	     -5.11754845	     25.79829350	    106.37260952	    -24.35092202	     -8.42567911	     -7.17094641	     23.72949254	    107.78062759
      1.39000000	    -18.31029780	     -0.56193436	     -3.14499693	     -0.49757186	      1.07212466	     -0.59895616	     38.91638728	     -5.10496395	    -14.13639037	     11.67012531	      0.20368211	    -26.12374115	      2.52729885	     -6.84524301	     40.06630611	     -9.52141383	     -6.34654975	     12.92233261	      0.22553725	    -33.48858790	     -5.46543704	     -6.84524301	    -17.19851213	      2.07031704	      1.38704318	    -26.88045138	     -9.80682536	     -5.22858481	     24.50978297	    106.20667448	    -25.80913898	     -7.78436539	     -7.30976876	     22.80289535	    107.46470508
      1.40000000	    -18.48991669	     -0.68334155	     -3.20599986	     -0.48894753	      1.04993476	     -0.59957492	     40.40712052	     -5.20457735	    -14.30284522	     12.21758402	      0.21323707	    -26.34662204	      2.80914052	     -6.86044262	     41.63460486	    -10.00162221	     -6.46648101	     13.69973795	      0.23910553	    -34.14648212	     -5.51484577	     -6.86044262	    -17.83289769	      2.23594683	      1.86291356	    -29.15641287	     -8.99218057	     -5.50318517	     23.33329559	    105.66767831	    -27.24136906	     -7.12600995	     -7.61928432	     22.05178043	    106.72599326
      1.41000000	    -18.61662341	     -0.73249877	     -3.26814928	     -0.48032474	      1.02666620	     -0.60028214	     42.02857808	     -5.38611259	    -13.86495932	     13.51538206	      0.23588792	    -26.41741315	      2.77751060	     -6.90689095	     43.19866514	    -10.32212037	     -5.96331796	     15.03480678	      0.26240688	    -34.76303751	     -6.43690313	     -6.90689095	    -18.43144319	      2.33691941	      2.20937380	    -31.21222762	     -8.01150996	     -6.79437701	     22.19408706	    104.79686409	    -28.61986501	     -6.32530315	     -8.36203186	     21.17242042	    105.23212934
      1.42000000	    -18.65125490	     -0.81761313	     -3.39252787	     -0.47155869	      1.00234859	     -0.60106383	     43.70574754	     -5.50403486	    -12.88176518	     15.57766157	      0.27188148	    -26.30774595	      2.68665980	     -6.93989887	     44.81341552	    -10.71247066	     -5.35515660	     17.14018576	      0.29915268	    -34.40664457	     -6.54185805	     -6.93989887	    -19.03758946	      2.52215412	      2.63497229	    -33.38647414	     -7.14546301	     -7.15072254	     21.48749692	    103.81006528	    -30.12663929	     -5.61267135	     -8.82429860	     20.77571810	    103.93791369
      1.43000000	    -18.49670782	     -0.77385877	     -3.57840405	     -0.46258783	      0.97692662	     -0.60198649	     45.44775150	     -5.69004028	    -11.26771189	     18.53773918	      0.32354458	    -25.96424892	      2.23412799	     -6.97941094	     46.23816444	    -10.90009252	     -4.40056393	     19.52271158	      0.34073560	    -35.03519382	     -7.36394070	     -6.97941094	    -19.70876806	      2.56629585	      3.01160954	    -35.36030857	     -6.29430097	     -7.35246692	     20.62103273	    103.49488614	    -31.57665780	     -4.88756664	     -9.58296544	     20.29290285	    102.83542290
      1.44000000	    -18.20660719	     -0.63797149	     -3.73701228	     -0.45345390	      0.95012762	     -0.60293463	     47.30555169	     -5.95024962	     -9.53874959	     22.06717455	      0.38514485	    -26.53974224	      1.83805924	     -7.07786960	     47.59347646	    -10.90904317	     -3.37401808	     22.28867849	      0.38901083	    -36.40539708	     -8.47351286	     -7.07786960	    -20.41614686	      2.45534994	      3.23319419	    -37.46237732	     -5.50376356	     -8.71003173	     20.37287403	    105.71059868	    -33.41753402	     -3.89947326	    -12.73621385	     21.27142539	    102.04806022
      1.45000000	    -18.00589953	     -0.43066925	     -3.77630196	     -0.44420990	      0.92188545	     -0.60376460	     49.50125038	     -6.29286933	     -8.13321098	     26.38859962	      0.46056795	    -26.36524419	      1.36653158	     -7.11283707	     49.26930071	    -10.82056697	     -2.35477717	     26.77112273	      0.46724424	    -33.39278486	     -9.21666929	     -7.11283707	    -20.85326049	      2.32554134	      3.42453825	    -39.72945835	     -4.75793244	     -9.20660499	     20.56514680	    103.41929772	    -35.09579834	     -3.48855211	    -13.31572319	     21.75490386	     99.87315086
